<svg width="160" height="40" viewBox="0 0 160 40" fill="none" xmlns="http://www.w3.org/2000/svg">
<path d="M41.321 11.5664H44.8702V25.0892H51.4481V28.1413H41.321V11.5664Z" fill="white"/>
<path d="M53.0459 25.326C52.5025 24.3247 52.2289 23.1993 52.252 22.0604C52.2289 20.9214 52.5025 19.796 53.0459 18.7948C53.5625 17.8592 54.3449 17.0978 55.2941 16.6066C56.346 16.0995 57.4987 15.8361 58.6664 15.8361C59.8342 15.8361 60.9869 16.0995 62.0388 16.6066C62.9866 17.0997 63.7684 17.8607 64.287 18.7948C64.8278 19.7969 65.1001 20.9219 65.0775 22.0604C65.1029 23.2034 64.8304 24.3334 64.287 25.3393C63.7649 26.2674 62.9837 27.0232 62.0388 27.5142C60.9869 28.0213 59.8342 28.2847 58.6664 28.2847C57.4987 28.2847 56.346 28.0213 55.2941 27.5142C54.3449 27.023 53.5625 26.2615 53.0459 25.326ZM61.6952 22.0604C61.7327 21.1439 61.4378 20.2448 60.8646 19.5286C60.5948 19.2128 60.2567 18.9625 59.8759 18.7966C59.495 18.6308 59.0814 18.5537 58.6664 18.5713C58.2517 18.5546 57.8387 18.6335 57.4593 18.8018C57.0799 18.9701 56.7442 19.2233 56.4782 19.542C55.9085 20.2592 55.6182 21.1587 55.661 22.0737C55.6182 22.9887 55.9085 23.8882 56.4782 24.6055C56.7442 24.9241 57.0799 25.1774 57.4593 25.3457C57.8387 25.514 58.2517 25.5928 58.6664 25.5762C59.0836 25.5905 59.4985 25.5093 59.8795 25.3388C60.2605 25.1682 60.5974 24.9128 60.8646 24.5921C61.4378 23.876 61.7327 22.9769 61.6952 22.0604Z" fill="white"/>
<path d="M67.2424 25.326C66.699 24.3247 66.4254 23.1994 66.4485 22.0604C66.4254 20.9214 66.699 19.7961 67.2424 18.7948C67.759 17.8592 68.5414 17.0978 69.4906 16.6066C70.5419 16.0995 71.6941 15.8362 72.8613 15.8362C74.0285 15.8362 75.1806 16.0995 76.2319 16.6066C77.1811 17.0978 77.9635 17.8592 78.4802 18.7948C79.0235 19.7961 79.2971 20.9214 79.2741 22.0604C79.2999 23.2039 79.0262 24.3343 78.4802 25.3393C77.96 26.2689 77.1782 27.0251 76.2319 27.5142C75.1806 28.0213 74.0285 28.2846 72.8613 28.2846C71.6941 28.2846 70.5419 28.0213 69.4906 27.5142C68.5414 27.023 67.759 26.2616 67.2424 25.326ZM75.8917 22.0604C75.933 21.1456 75.6428 20.2466 75.0745 19.5286C74.7951 19.2228 74.455 18.9786 74.0759 18.8115C73.6969 18.6443 73.2872 18.558 72.8729 18.558C72.4587 18.558 72.049 18.6443 71.6699 18.8115C71.2909 18.9786 70.9508 19.2228 70.6714 19.5286C70.109 20.2489 69.8248 21.1477 69.8708 22.0604C69.8286 22.9748 70.1176 23.8737 70.6848 24.5922C70.9642 24.898 71.3042 25.1422 71.6833 25.3093C72.0623 25.4764 72.472 25.5628 72.8863 25.5628C73.3005 25.5628 73.7102 25.4764 74.0893 25.3093C74.4683 25.1422 74.8084 24.898 75.0878 24.5922C75.6514 23.8723 75.9368 22.9735 75.8917 22.0604Z" fill="white"/>
<path d="M84.4543 11.5664V21.1598L89.2343 15.9795H92.9736L88.6372 20.7361L93.2204 28.1413H89.3544L86.2789 23.2212L84.4543 25.1826V28.1413H81.1187V11.5664H84.4543Z" fill="white"/>
<path d="M97.3266 25.396C97.8651 25.7534 98.502 25.933 99.1479 25.9097C99.7229 25.9394 100.296 25.8247 100.816 25.5762C101.007 25.4896 101.169 25.3485 101.28 25.1705C101.392 24.9924 101.448 24.7855 101.443 24.5755C101.453 24.4433 101.433 24.3105 101.384 24.1873C101.334 24.0641 101.258 23.9539 101.159 23.865C100.922 23.6909 100.646 23.5765 100.355 23.5314C100.022 23.4614 99.4414 23.378 98.6509 23.2846C97.7481 23.1761 96.8556 22.9943 95.9823 22.7409C95.3309 22.5535 94.7421 22.194 94.2778 21.7001C93.832 21.1726 93.603 20.4954 93.6374 19.8055C93.6287 19.0537 93.8627 18.3191 94.3045 17.7107C94.7701 17.0783 95.4049 16.5903 96.1358 16.3031C97.001 15.9581 97.9264 15.7891 98.8577 15.8061C100.514 15.8216 101.849 16.1763 102.86 16.8701C103.346 17.1842 103.75 17.6107 104.036 18.1135C104.322 18.6163 104.483 19.1806 104.505 19.7588H101.336C101.311 19.5286 101.232 19.3074 101.107 19.1124C100.982 18.9174 100.814 18.754 100.616 18.6347C100.116 18.325 99.535 18.1727 98.9478 18.1977C98.4168 18.1731 97.8893 18.2954 97.4233 18.5513C97.2494 18.6413 97.1034 18.7771 97.0011 18.9441C96.8988 19.1111 96.8441 19.3028 96.8429 19.4986C96.8353 19.6222 96.8596 19.7457 96.9133 19.8572C96.967 19.9687 97.0485 20.0646 97.1498 20.1357C97.3933 20.2939 97.6671 20.3996 97.9537 20.4459C98.2873 20.506 98.8377 20.5794 99.6215 20.6561C101.263 20.8473 102.521 21.1987 103.398 21.7102C104.271 22.2238 104.708 23.1011 104.708 24.3487C104.72 25.1016 104.474 25.8359 104.011 26.4301C103.503 27.0608 102.832 27.5397 102.07 27.8144C101.15 28.1548 100.175 28.32 99.1946 28.3014C97.5067 28.3014 96.1347 27.9267 95.0784 27.1773C94.5762 26.8362 94.1629 26.38 93.8728 25.8468C93.5827 25.3136 93.4242 24.7187 93.4106 24.1118H96.5561C96.5787 24.3703 96.6599 24.6202 96.7934 24.8427C96.9269 25.0652 97.1092 25.2544 97.3266 25.396Z" fill="white"/>
<path d="M112.397 28.2847C111.246 28.3108 110.106 28.0457 109.085 27.5142C108.155 27.0169 107.394 26.2555 106.897 25.326C106.371 24.319 106.107 23.196 106.129 22.0604C106.104 20.9212 106.368 19.7943 106.897 18.7848C107.399 17.8571 108.165 17.0991 109.098 16.6066C110.128 16.0738 111.275 15.8088 112.434 15.8361C114.059 15.8361 115.384 16.2508 116.407 17.0803C117.453 17.945 118.13 19.176 118.301 20.5227H114.835C114.72 19.9638 114.421 19.4598 113.985 19.0917C113.537 18.7279 112.973 18.5384 112.397 18.558C111.998 18.5445 111.602 18.6254 111.24 18.7941C110.878 18.9628 110.562 19.2144 110.316 19.5286C109.769 20.2562 109.493 21.1514 109.535 22.0604C109.493 22.9694 109.769 23.8646 110.316 24.5922C110.56 24.9088 110.876 25.1631 111.238 25.3341C111.6 25.5051 111.997 25.5881 112.397 25.5762C112.985 25.5969 113.561 25.4037 114.018 25.0325C114.464 24.6487 114.761 24.1212 114.859 23.5414H118.291C118.135 24.9029 117.462 26.1521 116.41 27.0305C115.376 27.8667 114.038 28.2847 112.397 28.2847Z" fill="white"/>
<path d="M120.239 25.326C119.696 24.3247 119.422 23.1994 119.445 22.0604C119.422 20.9214 119.696 19.7961 120.239 18.7948C120.756 17.8592 121.538 17.0978 122.487 16.6066C123.539 16.0995 124.691 15.8362 125.858 15.8362C127.025 15.8362 128.177 16.0995 129.229 16.6066C130.178 17.0978 130.96 17.8592 131.477 18.7948C132.02 19.7961 132.294 20.9214 132.271 22.0604C132.297 23.2039 132.023 24.3343 131.477 25.3393C130.961 26.2665 130.186 27.0225 129.245 27.5142C128.194 28.0213 127.042 28.2846 125.875 28.2846C124.708 28.2846 123.555 28.0213 122.504 27.5142C121.549 27.0257 120.76 26.264 120.239 25.326ZM128.889 22.0604C128.93 21.1456 128.64 20.2466 128.071 19.5286C127.792 19.2228 127.452 18.9786 127.073 18.8115C126.694 18.6443 126.284 18.558 125.87 18.558C125.456 18.558 125.046 18.6443 124.667 18.8115C124.288 18.9786 123.948 19.2228 123.668 19.5286C123.101 20.2471 122.812 21.146 122.854 22.0604C122.812 22.9748 123.101 23.8737 123.668 24.5922C123.948 24.898 124.288 25.1422 124.667 25.3093C125.046 25.4764 125.456 25.5628 125.87 25.5628C126.284 25.5628 126.694 25.4764 127.073 25.3093C127.452 25.1422 127.792 24.898 128.071 24.5922C128.641 23.8746 128.932 22.9756 128.892 22.0604H128.889Z" fill="white"/>
<path d="M145.57 28.1413H142.615L142.305 26.6736C141.877 27.2037 141.331 27.6258 140.711 27.9057C140.09 28.1856 139.412 28.3155 138.732 28.2847C138.093 28.3091 137.456 28.2054 136.858 27.9797C136.26 27.754 135.713 27.4108 135.25 26.9705C134.36 26.0965 133.915 24.6333 133.915 22.5807V15.9795H137.251V22.1771C137.251 23.2846 137.444 24.1151 137.831 24.6755C138.033 24.9569 138.303 25.182 138.616 25.3291C138.929 25.4763 139.274 25.5407 139.619 25.5161C139.994 25.533 140.368 25.4565 140.706 25.2935C141.044 25.1305 141.337 24.8861 141.557 24.5821C142.018 23.9584 142.244 23.0844 142.244 21.967V15.9795H145.58L145.57 28.1413Z" fill="white"/>
<path d="M146.754 18.7948V15.9795H148.756V12.5671H152.091V15.9795H154.86V18.7948H152.091V24.1318C152.061 24.4629 152.158 24.7931 152.361 25.0558C152.487 25.1617 152.633 25.2413 152.79 25.29C152.947 25.3387 153.112 25.3555 153.275 25.3393H155V28.1546H152.261C149.94 28.1546 148.78 26.9949 148.782 24.6755V18.7948H146.754Z" fill="white"/>
<path d="M22.3205 9.00006L5 19.0001V13.0001L17.1282 6.00006L22.3205 9.00006Z" fill="white"/>
<path d="M29.2564 13.0001V16.4616L8 28.7308L5 27.0001V23.7437L26.4231 11.3719L29.2564 13.0001Z" fill="white"/>
<path d="M12.1026 31.1026L29.2564 21.2052V27.0001L17.1282 34.0001L12.1026 31.1026Z" fill="white"/>
</svg>
