<svg width="108" height="22" viewBox="0 0 108 22" fill="none" xmlns="http://www.w3.org/2000/svg">
<g clip-path="url(#clip0_0_10537)">
<path d="M1.07599 16V5.09091H3.0522V14.3434H7.85689V16H1.07599ZM13.109 16.1598C12.2887 16.1598 11.5803 15.9893 10.9837 15.6484C10.3906 15.304 9.9343 14.8175 9.6147 14.1889C9.2951 13.5568 9.1353 12.8129 9.1353 11.957C9.1353 11.1154 9.2951 10.3768 9.6147 9.74112C9.93786 9.10192 10.3888 8.60476 10.9677 8.24964C11.5465 7.89098 12.2266 7.71165 13.0078 7.71165C13.5121 7.71165 13.9879 7.79332 14.4354 7.95668C14.8864 8.11648 15.2841 8.36506 15.6286 8.70241C15.9766 9.03977 16.25 9.46946 16.4489 9.99148C16.6477 10.5099 16.7472 11.1278 16.7472 11.8452V12.4364H10.0408V11.1367H14.8988C14.8952 10.7674 14.8153 10.4389 14.6591 10.1513C14.5028 9.86009 14.2844 9.63104 14.0039 9.46413C13.7269 9.29723 13.4038 9.21378 13.0344 9.21378C12.6403 9.21378 12.294 9.30966 11.9957 9.50142C11.6974 9.68963 11.4648 9.93821 11.2979 10.2472C11.1346 10.5526 11.0511 10.8881 11.0476 11.2539V12.3885C11.0476 12.8643 11.1346 13.2727 11.3086 13.6136C11.4826 13.951 11.7259 14.2102 12.0384 14.3913C12.3509 14.5689 12.7166 14.6577 13.1357 14.6577C13.4162 14.6577 13.6701 14.6186 13.8974 14.5405C14.1246 14.4588 14.3217 14.3398 14.4886 14.1836C14.6555 14.0273 14.7816 13.8338 14.8668 13.603L16.6673 13.8054C16.5536 14.2812 16.337 14.6967 16.0174 15.0518C15.7013 15.4034 15.2965 15.6768 14.8029 15.8722C14.3093 16.0639 13.7447 16.1598 13.109 16.1598ZM20.7329 16.1651C20.2144 16.1651 19.7474 16.0728 19.3319 15.8881C18.92 15.6999 18.5933 15.4229 18.3518 15.0572C18.1139 14.6914 17.9949 14.2404 17.9949 13.7042C17.9949 13.2425 18.0802 12.8608 18.2506 12.5589C18.4211 12.2571 18.6537 12.0156 18.9484 11.8345C19.2432 11.6534 19.5752 11.5167 19.9445 11.4244C20.3174 11.3285 20.7027 11.2592 21.1004 11.2166C21.5798 11.1669 21.9687 11.1225 22.267 11.0835C22.5653 11.0408 22.7819 10.9769 22.9168 10.8917C23.0553 10.8029 23.1246 10.6662 23.1246 10.4815V10.4496C23.1246 10.0483 23.0056 9.73757 22.7677 9.5174C22.5297 9.29723 22.1871 9.18714 21.7396 9.18714C21.2673 9.18714 20.8927 9.29013 20.6157 9.49609C20.3422 9.70206 20.1576 9.94531 20.0617 10.2259L18.2613 9.97017C18.4033 9.47301 18.6377 9.05753 18.9644 8.72372C19.2911 8.38636 19.6906 8.13423 20.1629 7.96733C20.6352 7.79688 21.1572 7.71165 21.729 7.71165C22.1231 7.71165 22.5155 7.75781 22.9062 7.85014C23.2968 7.94247 23.6537 8.09517 23.9768 8.30824C24.3 8.51776 24.5592 8.80362 24.7545 9.16584C24.9534 9.52805 25.0528 9.98082 25.0528 10.5241V16H23.1991V14.8761H23.1352C23.018 15.1033 22.8529 15.3164 22.6398 15.5153C22.4303 15.7106 22.1657 15.8686 21.8461 15.9893C21.5301 16.1065 21.159 16.1651 20.7329 16.1651ZM21.2336 14.7482C21.6206 14.7482 21.9562 14.6719 22.2403 14.5192C22.5244 14.3629 22.7428 14.157 22.8955 13.9013C23.0518 13.6456 23.1299 13.3668 23.1299 13.065V12.1009C23.0695 12.1506 22.9665 12.1967 22.8209 12.2393C22.6789 12.282 22.5191 12.3192 22.3415 12.3512C22.164 12.3832 21.9882 12.4116 21.8142 12.4364C21.6402 12.4613 21.4893 12.4826 21.3614 12.5004C21.0738 12.5394 20.8163 12.6033 20.589 12.6921C20.3618 12.7809 20.1824 12.9052 20.051 13.065C19.9197 13.2212 19.854 13.4237 19.854 13.6722C19.854 14.0273 19.9836 14.2955 20.2428 14.4766C20.502 14.6577 20.8323 14.7482 21.2336 14.7482ZM26.9917 16V7.81818H28.8614V9.18182H28.9466C29.0958 8.70952 29.3515 8.34553 29.7137 8.08984C30.0795 7.83061 30.4967 7.70099 30.9655 7.70099C31.072 7.70099 31.191 7.70632 31.3224 7.71697C31.4573 7.72408 31.5692 7.73651 31.6579 7.75426V9.52805C31.5763 9.49964 31.4466 9.47479 31.2691 9.45348C31.0951 9.42862 30.9264 9.41619 30.7631 9.41619C30.4115 9.41619 30.0954 9.49254 29.8149 9.64524C29.5379 9.79439 29.3195 10.0021 29.1597 10.2685C28.9999 10.5348 28.92 10.842 28.92 11.19V16H26.9917ZM34.8673 11.206V16H32.939V7.81818H34.782V9.20845H34.8779C35.0661 8.75035 35.3662 8.38636 35.7781 8.11648C36.1936 7.84659 36.7068 7.71165 37.3176 7.71165C37.8822 7.71165 38.374 7.83239 38.7931 8.07386C39.2156 8.31534 39.5423 8.66513 39.7732 9.12322C40.0075 9.58132 40.123 10.1371 40.1194 10.7905V16H38.1911V11.0888C38.1911 10.5419 38.0491 10.114 37.765 9.80504C37.4845 9.49609 37.0956 9.34162 36.5985 9.34162C36.2611 9.34162 35.961 9.41619 35.6982 9.56534C35.439 9.71094 35.2348 9.92223 35.0857 10.1992C34.9401 10.4762 34.8673 10.8118 34.8673 11.206ZM45.8003 16V7.81818H47.6434V9.20845H47.7393C47.9097 8.7397 48.192 8.37393 48.5862 8.11115C48.9804 7.84482 49.4509 7.71165 49.9978 7.71165C50.5518 7.71165 51.0187 7.84659 51.3987 8.11648C51.7822 8.38281 52.0521 8.7468 52.2084 9.20845H52.2936C52.4747 8.75391 52.7801 8.39169 53.2098 8.1218C53.643 7.84837 54.1562 7.71165 54.7492 7.71165C55.502 7.71165 56.1164 7.94957 56.5922 8.42543C57.0681 8.90128 57.306 9.59553 57.306 10.5082V16H55.3724V10.8065C55.3724 10.2987 55.2375 9.92756 54.9676 9.69318C54.6977 9.45526 54.3675 9.33629 53.9768 9.33629C53.5116 9.33629 53.1476 9.48189 52.8849 9.77308C52.6256 10.0607 52.496 10.4354 52.496 10.897V16H50.605V10.7266C50.605 10.304 50.4772 9.96662 50.2215 9.71449C49.9694 9.46236 49.6391 9.33629 49.2307 9.33629C48.9537 9.33629 48.7016 9.40732 48.4743 9.54936C48.2471 9.68786 48.066 9.88494 47.931 10.1406C47.7961 10.3928 47.7286 10.6875 47.7286 11.0249V16H45.8003ZM62.8311 16.1598C62.0321 16.1598 61.3397 15.984 60.7537 15.6325C60.1678 15.2809 59.7132 14.7891 59.3901 14.157C59.0705 13.5249 58.9107 12.7862 58.9107 11.9411C58.9107 11.0959 59.0705 10.3555 59.3901 9.71982C59.7132 9.08416 60.1678 8.59055 60.7537 8.23899C61.3397 7.88743 62.0321 7.71165 62.8311 7.71165C63.6301 7.71165 64.3226 7.88743 64.9086 8.23899C65.4945 8.59055 65.9473 9.08416 66.2669 9.71982C66.59 10.3555 66.7516 11.0959 66.7516 11.9411C66.7516 12.7862 66.59 13.5249 66.2669 14.157C65.9473 14.7891 65.4945 15.2809 64.9086 15.6325C64.3226 15.984 63.6301 16.1598 62.8311 16.1598ZM62.8418 14.6151C63.275 14.6151 63.6373 14.4961 63.9284 14.2582C64.2196 14.0167 64.4363 13.6935 64.5783 13.2887C64.7239 12.8839 64.7967 12.4329 64.7967 11.9357C64.7967 11.435 64.7239 10.9822 64.5783 10.5774C64.4363 10.169 64.2196 9.84411 63.9284 9.60263C63.6373 9.36115 63.275 9.24041 62.8418 9.24041C62.3979 9.24041 62.0286 9.36115 61.7338 9.60263C61.4426 9.84411 61.2243 10.169 61.0787 10.5774C60.9366 10.9822 60.8656 11.435 60.8656 11.9357C60.8656 12.4329 60.9366 12.8839 61.0787 13.2887C61.2243 13.6935 61.4426 14.0167 61.7338 14.2582C62.0286 14.4961 62.3979 14.6151 62.8418 14.6151ZM68.3882 16V7.81818H70.2579V9.18182H70.3431C70.4923 8.70952 70.748 8.34553 71.1102 8.08984C71.4759 7.83061 71.8932 7.70099 72.3619 7.70099C72.4685 7.70099 72.5874 7.70632 72.7188 7.71697C72.8538 7.72408 72.9656 7.73651 73.0544 7.75426V9.52805C72.9727 9.49964 72.8431 9.47479 72.6656 9.45348C72.4916 9.42862 72.3229 9.41619 72.1595 9.41619C71.808 9.41619 71.4919 9.49254 71.2114 9.64524C70.9344 9.79439 70.716 10.0021 70.5562 10.2685C70.3964 10.5348 70.3165 10.842 70.3165 11.19V16H68.3882ZM77.6207 16.1598C76.8004 16.1598 76.092 15.9893 75.4954 15.6484C74.9023 15.304 74.446 14.8175 74.1264 14.1889C73.8068 13.5568 73.647 12.8129 73.647 11.957C73.647 11.1154 73.8068 10.3768 74.1264 9.74112C74.4496 9.10192 74.9006 8.60476 75.4794 8.24964C76.0582 7.89098 76.7383 7.71165 77.5195 7.71165C78.0238 7.71165 78.4996 7.79332 78.9471 7.95668C79.3981 8.11648 79.7958 8.36506 80.1403 8.70241C80.4883 9.03977 80.7617 9.46946 80.9606 9.99148C81.1594 10.5099 81.2589 11.1278 81.2589 11.8452V12.4364H74.5526V11.1367H79.4105C79.407 10.7674 79.3271 10.4389 79.1708 10.1513C79.0146 9.86009 78.7962 9.63104 78.5156 9.46413C78.2386 9.29723 77.9155 9.21378 77.5462 9.21378C77.152 9.21378 76.8058 9.30966 76.5075 9.50142C76.2092 9.68963 75.9766 9.93821 75.8097 10.2472C75.6463 10.5526 75.5629 10.8881 75.5593 11.2539V12.3885C75.5593 12.8643 75.6463 13.2727 75.8203 13.6136C75.9943 13.951 76.2376 14.2102 76.5501 14.3913C76.8626 14.5689 77.2283 14.6577 77.6474 14.6577C77.9279 14.6577 78.1818 14.6186 78.4091 14.5405C78.6364 14.4588 78.8335 14.3398 79.0004 14.1836C79.1673 14.0273 79.2933 13.8338 79.3786 13.603L81.179 13.8054C81.0653 14.2812 80.8487 14.6967 80.5291 15.0518C80.2131 15.4034 79.8082 15.6768 79.3146 15.8722C78.821 16.0639 78.2564 16.1598 77.6207 16.1598Z" fill="#437EF7"/>
<path d="M92.1666 11H103M98.8333 6L103.244 10.4107C103.569 10.7362 103.569 11.2638 103.244 11.5893L98.8333 16" stroke="#437EF7" stroke-width="1.67" stroke-linecap="round"/>
</g>
<defs>
<clipPath id="clip0_0_10537">
<rect width="108" height="22" rx="5" fill="white"/>
</clipPath>
</defs>
</svg>
